# xmcd
#
# Track frame offsets:
#	182
#	19522
#	32927
#	46402
#	64597
#	90802
#	111492
#	126307
#	151887
#	162157
#	175692
#	205705
#	222887
#	239112
#	266855
#
# Disc length: 3686 seconds
#
# Revision: 1
# Processed by: cddbd v1.5.2PL0 Copyright (c) Steve Scherf et al.
# Submitted via: audiograbber 1.83.01
#
DISCID=cc0e640f
DTITLE=Javier Martínez - Corrientes
DYEAR=1993
DGENRE=Blues
TTITLE0=Corrientes
TTITLE1=Amor secreto
TTITLE2=Quiero estar mejor
TTITLE3=Los tipos de la cueva
TTITLE4=El tiempo nunca vuelve y vivirlo es lo mejor
TTITLE5=Como siempre
TTITLE6=Amor intemporal
TTITLE7=Casanova
TTITLE8=San Telmo Harlem
TTITLE9=Hoy dejé el escabio
TTITLE10=Juan despierta ya
TTITLE11=La felicidad de las damas
TTITLE12=Mujer del viento
TTITLE13=BONUS TRACK: Rouge et champagne
TTITLE14=Los tipos de la cueva (instrumental)
EXTD=
EXTT0=
EXTT1=
EXTT2=
EXTT3=
EXTT4=
EXTT5=
EXTT6=
EXTT7=
EXTT8=
EXTT9=
EXTT10=
EXTT11=
EXTT12=
EXTT13=
EXTT14=
PLAYORDER=
